<?xml version="1.0" encoding="utf-8"?>
<!-- Generator: Adobe Illustrator 26.0.3, SVG Export Plug-In . SVG Version: 6.00 Build 0)  -->
<svg version="1.1" id="圖層_1" xmlns="http://www.w3.org/2000/svg" xmlns:xlink="http://www.w3.org/1999/xlink" x="0px" y="0px"
	 viewBox="0 0 686 683.1" style="enable-background:new 0 0 686 683.1;" xml:space="preserve">
<style type="text/css">
	.st0{fill:#FFFFFF;}
	.st1{fill:#F4AB37;}
</style>
<path class="st0" d="M123.7,511.8v34.1h-8.8v6.9H9.1v-6.9h-9v-34.1l41.4-19.7h38.8L123.7,511.8z M4.5,558.1h114.4v37.2l-23.2,21.1
	H17.3v-27.2h58.9v-5.4H4.5V558.1z M40,530.1h43.8L65,522.5h-6.6L40,530.1z"/>
<path class="st0" d="M263.1,593.2v21.5h-39.4l-19.4-33.2h-5l-19.4,33.2H142v-21.5L162,569h-19.8v-32.4h35.2v-9h-33.4V496h116.8v31.6
	h-36.2v9h37.9v32.4h-21.2L263.1,593.2z"/>
<path class="st0" d="M404.6,496.2v36.2h-40.8v82.4h-42.6v-37.7l-20.8,22.2h-17v-44.7l29.6-22.2h-30.2v-36.2H404.6z"/>
<path class="st0" d="M430.6,569.9H455v45.5h-31.5v-32.5L430.6,569.9z M424.1,495.2H455v33.5H424L424.1,495.2z M424.1,532.2H455v34.3
	H424L424.1,532.2z M545.1,581.4V615h-12.4l-6.5-8.2l-5.2,8h-14.8v-22.8l3.7-5.5l-3.4-4.3v-54.7H482v79.3l-7.6,8.9h-16.5V499.9h41.8
	v-7h27.9v7h3.3v-5.8h10.1l0.7,5.8h2.9v27.5h-15.6V542l7.3-11.4h8.1v35.4l-5.4,7.6L545.1,581.4z M485.1,530.3h18.1v19H485
	L485.1,530.3z M485.1,552.3h18.1v60H485L485.1,552.3z M492.7,592h3.1v-20.9h-3.1V592z"/>
<path class="st0" d="M565.4,495.2h52v119.5h-26.5v-19.8l3-4.1v-10.8h-6.3v34.6h-22.3V495.2z M588.2,524.4v8h4.8v-8H588.2z
	 M593,559.7v-6.8h-4.8v6.8H593z M686,573.2v41.4h-65.2V494.9h63.8v74.4H649V581h11.3l4.5-7.9L686,573.2z M642.8,525.7v19.8h4v-19.8
	H642.8z M662.1,525.7H658v19.8h4.1V525.7z"/>
<path class="st0" d="M393,536.7c0.4,0.6,8.1,12,10.3,16.8c3.3,7.2,1.8,14.1-2.9,18.7l16.7,32c0.9,1.8,0.2,4-1.5,4.9
	c-0.1,0-0.1,0.1-0.2,0.1l-8.8,4c-1.8,0.8-4,0-4.8-1.8c0-0.1-0.1-0.1-0.1-0.2l-13.2-33.6c-6.6,0.5-12.8-2.9-16-10.1
	c-2.2-4.7-5.7-18.1-5.9-18.8c-0.8-3,5-5.7,6.7-2.8l8.9,19.5c0.4,0.4,2.3-0.5,2.2-1c-1.4-3.6-7.6-19.7-7.8-20.1
	c-0.8-3.1,4.9-5.7,6.6-3c0.2,0.4,8.2,15.7,10,19c0.3,0.4,2.3-0.5,2.2-1l-8.8-19.5C385.5,536.7,391.3,534.1,393,536.7z"/>
<path class="st0" d="M32.1,645.4v3.9h15.4v11.8H32.1v11.3H15.5V631h32.3v14.4H32.1z"/>
<path class="st0" d="M87.4,639.3v33.4h-9.6l-3.1-4l-3.9,4H60l-6.3-6.6v-20.2l6.7-6.6L87.4,639.3z M72.8,659.8v-9.5H68v9.5
	L72.8,659.8z"/>
<path class="st0" d="M93.6,639v-9.7h15.9v9.7H93.6z M93.6,672.7v-31.3h15.9v31.3H93.6z"/>
<path class="st0" d="M131.5,672.6h-15.4v-43.4h15.4V672.6z"/>
<path class="st0" d="M152.8,659.5v2.4h18.6v10.8h-27.8l-5.7-5.9v-20.6l6.7-6.8H166l5.7,5.9v14.2L152.8,659.5z M151.9,649.9v3h6.1v-3
	H151.9z"/>
<path class="st0" d="M210.8,629.2v43.5h-26.3l-6.7-6.6v-20.2l6.7-6.6h11.4v-10.1H210.8z M196.5,661.3v-10.1h-4.6v10.1H196.5z"/>
<path class="st0" d="M255.2,652.7v6.9h6.6v13.1h-15.7l-6.7-6.6v-13.4h-3.5v-12.8h3.5v-7.5h15.8v7.5h6.6v12.8L255.2,652.7z"/>
<path class="st0" d="M267.8,666.3v-20.5l6.4-6.5h20.4l6.4,6.5v20.5l-6.4,6.6h-20.4L267.8,666.3z M287.3,660.9v-9.6h-5.4v9.7
	L287.3,660.9z"/>
<path class="st0" d="M342.8,672.6h-15.4v-43.4h15.4V672.6z"/>
<path class="st0" d="M349.2,666.3v-20.5l6.4-6.5H376l6.4,6.5v20.5l-6.4,6.6h-20.4L349.2,666.3z M368.6,660.9v-9.6h-5.5v9.7
	L368.6,660.9z"/>
<path class="st0" d="M388.8,672.7v-9.1H403V661h-10.9l-3.6-3.5v-13.1l4.6-5.1h24.9v8h-14.2v2.6h11.6l3.6,3.5v14.2l-4.7,5.2
	L388.8,672.7z"/>
<path class="st0" d="M440,659.5v2.4h18.6v10.8h-27.9l-5.7-5.9v-20.6l6.7-6.8h21.4l5.7,5.9v14.2L440,659.5z M439.1,649.9v3h6v-3
	H439.1z"/>
<path class="st0" d="M478.3,659.1h2.7v-19.8h12.4v19.8h2.7v-19.8h13.4v23.3l-6.3,10.1h-12.6l-3.3-5.9h-0.7l-3.3,5.9h-12.1l-6.3-10.1
	v-23.3h13.4V659.1z"/>
<path class="st0" d="M530.7,659.5v2.4h18.6v10.8h-27.9l-5.7-5.9v-20.6l6.7-6.8h21.4l5.7,5.9v14.2L530.7,659.5z M529.8,649.9v3h6v-3
	H529.8z"/>
<path class="st0" d="M555.7,639v-9.7h15.9v9.7H555.7z M555.7,672.7v-31.3h15.9v31.3H555.7z"/>
<path class="st0" d="M610.4,639.3v37.1l-6.6,6.6h-24.5v-11.1h16.2v-2.7h-12.9l-4.8-5.1v-18.2l6.7-6.6L610.4,639.3z M591.7,658h5.1
	v-7.2h-5.1L591.7,658z"/>
<path class="st0" d="M648.7,645.9v26.8h-14.4v-19.8h-3v19.8h-14.3v-43.5h14.9v10.1H642L648.7,645.9z"/>
<path class="st0" d="M673,652.7v6.9h6.7v13.1h-15.8l-6.7-6.6v-13.4h-3.5v-12.8h3.5v-7.5H673v7.5h6.7v12.8L673,652.7z"/>
<path class="st0" d="M550.7,217.4H135.4c-26.5,0-47.9,21.5-47.9,47.9s21.5,47.9,47.9,47.9h415.3c26.5,0,47.9-21.5,47.9-47.9
	S577.1,217.4,550.7,217.4L550.7,217.4z"/>
<path class="st0" d="M566.6,345.2H119.4c-8.8,0-16,7.2-16,16v16c0,35.3,28.6,63.9,63.9,63.9h351.4c35.3,0,63.9-28.6,63.9-63.9
	c0,0,0,0,0,0v-16C582.6,352.4,575.5,345.2,566.6,345.2z"/>
<path class="st0" d="M146,191.7h394c34.5,0,54.5-43.8,34.8-75.8C534.7,51.1,446.4,0.1,343,0C239.7,0.1,151.4,51.1,111.3,115.9
	C91.5,147.8,111.5,191.7,146,191.7z"/>
<circle class="st1" cx="312.1" cy="64.9" r="12.4"/>
<circle class="st1" cx="374" cy="64.9" r="12.4"/>
<path class="st1" d="M375.5,105.3c-14.9,17.9-41.5,20.4-59.5,5.5c-2-1.7-3.8-3.5-5.5-5.5c-3.3-3.9-9.1-4.5-13.1-1.2
	s-4.5,9.1-1.2,13.1c21.5,25.8,59.9,29.3,85.7,7.8c2.8-2.4,5.4-5,7.8-7.8c3.4-3.8,3.1-9.7-0.7-13.1c-3.8-3.4-9.7-3.1-13.1,0.7
	C375.8,105,375.7,105.1,375.5,105.3z"/>
</svg>
