<svg id="圖層_1" data-name="圖層 1" xmlns="http://www.w3.org/2000/svg" viewBox="0 0 686.05 683.06"><defs><style>.cls-1{fill:#fff;}.cls-2{fill:#f4ab37;}</style></defs><path class="cls-1" d="M123.72,511.81v34.08h-8.78v6.94H9.05v-6.94h-9V511.81l41.42-19.65H80.26ZM4.46,558.08H118.83v37.25l-23.2,21.1H17.3V589.27H76.15v-5.38H4.46Zm35.52-28H83.75L65,522.48H58.45Z"/><path class="cls-1" d="M263.06,593.2v21.49H223.61l-19.39-33.15h-5l-19.39,33.15H142V593.2L162,569H142.23V536.58h35.25v-9H144.06V496H260.83v31.58H224.66v9h37.87v32.37H241.3Z"/><path class="cls-1" d="M404.62,496.22v36.17H363.83v82.43H321.27V577.08l-20.84,22.15h-17V554.54l29.62-22.15H282.83V496.22Z"/><path class="cls-1" d="M430.6,569.87H455v45.46H423.52v-32.5Zm-6.55-74.7H455v33.55H424.05Zm0,37H455V566.5H424.05Zm121,49.27V615H532.69l-6.55-8.25-5.24,8H506.09v-22.8l3.67-5.51-3.41-4.32v-54.7H482V606.7l-7.6,8.91H457.83V499.89h41.8v-6.95h27.92v6.95h3.28v-5.77h10.09l.65,5.77h2.89v27.52h-15.6V542l7.34-11.41h8.12v35.39l-5.37,7.6Zm-60-51.11h18.08v19H485Zm0,22h18.08v60H485Zm7.6,39.71h3.14V571.18h-3.14Z"/><path class="cls-1" d="M565.35,495.17h52V614.69H590.9V594.9l3-4.06V580.09h-6.27v34.6H565.35Zm22.8,29.23v8H593v-8ZM593,559.65v-6.82h-4.85v6.82Zm93,13.5v41.41H620.83V494.91h63.83v74.42H649V581h11.27l4.46-7.86Zm-43.22-47.44v19.78h4V525.71Zm19.27,0H658v19.78h4.07Z"/><path class="cls-1" d="M393,536.66c.4.6,8.14,12,10.29,16.75,3.28,7.21,1.78,14.1-2.94,18.74l16.7,32a3.64,3.64,0,0,1-1.55,4.91l-.18.09-8.82,4a3.64,3.64,0,0,1-4.81-1.8l-.08-.2-13.15-33.64c-6.62.52-12.78-2.9-16.05-10.1-2.16-4.74-5.67-18.07-5.86-18.77-.83-3,5-5.68,6.68-2.85l8.85,19.54c.39.39,2.28-.51,2.2-1-1.39-3.58-7.63-19.69-7.78-20.06-.85-3.07,4.86-5.67,6.6-3,.2.36,8.21,15.65,10,19.05.33.39,2.26-.46,2.21-1l-8.85-19.47C385.46,536.68,391.29,534.06,393,536.66Z"/><path class="cls-1" d="M32.07,645.44v3.89H47.46v11.8H32.07v11.34H15.49V631.05H47.83v14.39Z"/><path class="cls-1" d="M87.36,639.33V672.7h-9.6l-3.09-4-3.9,4H60l-6.34-6.6V645.94l6.74-6.59ZM72.83,659.78v-9.45H68v9.49Z"/><path class="cls-1" d="M93.63,639v-9.74h15.89V639Zm0,33.77V641.44h15.89v31.28Z"/><path class="cls-1" d="M131.54,672.62H116.15V629.21h15.39Z"/><path class="cls-1" d="M152.83,659.48v2.4h18.59v10.84H143.57l-5.69-5.9V646.19l6.69-6.84H166l5.7,5.89v14.24Zm-.9-9.54v2.95h6v-2.95Z"/><path class="cls-1" d="M210.75,629.21v43.51H184.42l-6.69-6.6V645.94l6.69-6.59h11.41V629.21Zm-14.24,32.12V651.19h-4.6v10.14Z"/><path class="cls-1" d="M255.23,652.69v6.94h6.6v13.09H246.09l-6.69-6.6V652.69H236V639.85h3.45v-7.52h15.83v7.5h6.6v12.84Z"/><path class="cls-1" d="M267.83,666.33V645.84l6.44-6.54h20.38l6.44,6.54v20.49l-6.44,6.6H274.3Zm19.43-5.39v-9.61h-5.43V661Z"/><path class="cls-1" d="M342.83,672.62h-15.4V629.21h15.4Z"/><path class="cls-1" d="M349.15,666.33V645.84l6.44-6.54H376l6.44,6.54v20.49l-6.44,6.6H355.59Zm19.43-5.39v-9.61h-5.45V661Z"/><path class="cls-1" d="M388.75,672.72v-9.09H403V661H392.09l-3.59-3.45V644.49l4.64-5.14h24.93v8H403.83V650h11.59l3.6,3.45v14.18l-4.65,5.15Z"/><path class="cls-1" d="M440,659.48v2.4h18.59v10.84H430.74l-5.69-5.9V646.19l6.69-6.84h21.38l5.7,5.89v14.24Zm-.9-9.54v2.95h6.05v-2.95Z"/><path class="cls-1" d="M478.34,659.13H481v-19.8h12.44v19.8h2.7v-19.8h13.39v23.3l-6.3,10.09H490.62l-3.29-5.9h-.7l-3.3,5.9H471.24L465,662.63v-23.3h13.39Z"/><path class="cls-1" d="M530.67,659.48v2.4h18.58v10.84H521.38l-5.7-5.9V646.19l6.7-6.84h21.38l5.69,5.89v14.24Zm-.9-9.54v2.95h6v-2.95Z"/><path class="cls-1" d="M555.68,639v-9.74h15.89V639Zm0,33.77V641.44h15.89v31.28Z"/><path class="cls-1" d="M610.42,639.33v37.11l-6.59,6.6H579.3V671.92h16.24v-2.7H582.6l-4.8-5.1V645.94l6.7-6.59ZM591.69,658h5.14v-7.24h-5.1Z"/><path class="cls-1" d="M648.67,645.94v26.78H634.23V652.93h-3v19.79H616.9V629.21h14.93v10.12H642Z"/><path class="cls-1" d="M673,652.69v6.94h6.65v13.09H663.89l-6.69-6.6V652.69h-3.45V639.85h3.45v-7.52H673v7.5h6.65v12.84Z"/><path class="cls-1" d="M550.67,217.41H135.39a47.92,47.92,0,1,0,0,95.84H550.67a47.92,47.92,0,1,0,0-95.84Z"/><path class="cls-1" d="M566.64,345.19H119.41a16,16,0,0,0-16,16v16a63.89,63.89,0,0,0,63.89,63.88H518.72a63.88,63.88,0,0,0,63.89-63.87h0v-16A16,16,0,0,0,566.64,345.19Z"/><path class="cls-1" d="M146,191.67H540c34.51,0,54.53-43.83,34.76-75.75C534.7,51.11,446.4.1,343,0,239.67.1,151.36,51.11,111.25,115.91,91.47,147.83,111.5,191.67,146,191.67Z"/><circle class="cls-2" cx="312.07" cy="64.91" r="12.38"/><circle class="cls-2" cx="373.96" cy="64.91" r="12.38"/><path class="cls-2" d="M375.51,105.33a42.25,42.25,0,0,1-65,0,9.28,9.28,0,0,0-14.28,11.87,60.88,60.88,0,0,0,93.53,0A9.28,9.28,0,1,0,376,104.78C375.81,105,375.66,105.14,375.51,105.33Z"/></svg>