<svg id="圖層_1" data-name="圖層 1" xmlns="http://www.w3.org/2000/svg" viewBox="0 0 281.9 58.6"><defs><style>.cls-1{fill:#fff;}.cls-2{fill:#252525;}</style></defs><path class="cls-1" d="M118.51,13.76V24.22h-2.7v2.13H83.3V24.22H80.53V13.76l12.71-6h11.91ZM81.9,28H117V39.39l-7.12,6.48H85.84V37.54H103.9V35.89h-22Zm10.9-8.61h13.44L100.48,17h-2Z" transform="translate(-9.24 -7.73)"/><path class="cls-1" d="M161.28,38.75v6.59H149.17l-5.95-10.18h-1.53l-5.95,10.18H124.11V38.75l6.15-7.45h-6.07V21.37H135V18.59H124.75V8.89H160.6v9.7H149.49v2.78h11.63V31.3H154.6Z" transform="translate(-9.24 -7.73)"/><path class="cls-1" d="M204.74,9V20.08H192.23v25.3H179.15V33.8l-6.39,6.8h-5.23V26.88l9.09-6.8h-9.26V9Z" transform="translate(-9.24 -7.73)"/><path class="cls-1" d="M212.71,31.58h7.49v14h-9.66v-10Zm-2-22.93h9.5V19h-9.5Zm0,11.35h9.5V30.54h-9.5Zm37.14,15.12v10.3h-3.78l-2-2.53-1.61,2.45h-4.54v-7L237,36.65l-1-1.32V18.55h-7.48V42.89l-2.34,2.74h-5.07V10.1h12.84V8h8.57V10.1h1V8.33h3.1l.2,1.77h.89v8.45h-4.79V23l2.25-3.5h2.5V30.38L246,32.71ZM229.41,19.43H235v5.84h-5.55Zm0,6.76H235V44.62h-5.55Zm2.33,12.19h1V32h-1Z" transform="translate(-9.24 -7.73)"/><path class="cls-1" d="M254.08,8.65h16V45.34h-8.12V39.27l.92-1.25v-3.3h-1.93V45.34h-6.84Zm7,9v2.46h1.49V17.62Zm1.49,10.83v-2.1h-1.49v2.1Zm28.56,4.14V45.3h-20V8.57h19.59V31.42H279.75V35h3.46l1.37-2.41ZM277.86,18V24.1h1.24V18Zm5.91,0h-1.25V24.1h1.25Z" transform="translate(-9.24 -7.73)"/><path class="cls-1" d="M201.17,21.39a55.22,55.22,0,0,1,3.16,5.14,4.89,4.89,0,0,1-.9,5.75l5.13,9.83a1.13,1.13,0,0,1-.53,1.54l-2.71,1.23a1.12,1.12,0,0,1-1.5-.61l-4-10.33a4.9,4.9,0,0,1-4.93-3.1,55.69,55.69,0,0,1-1.79-5.76c-.26-.92,1.52-1.74,2.05-.88l2.71,6c.12.12.7-.15.68-.31-.43-1.1-2.34-6-2.39-6.15-.26-.95,1.49-1.74,2-.92l3.06,5.84c.1.12.7-.14.68-.3l-2.72-6C198.86,21.39,200.65,20.59,201.17,21.39Z" transform="translate(-9.24 -7.73)"/><path class="cls-1" d="M90.37,54.78V56H95.1V59.6H90.37v3.48H85.28V50.37H95.2v4.41Z" transform="translate(-9.24 -7.73)"/><path class="cls-1" d="M107.34,52.91V63.16H104.4l-1-1.25-1.2,1.25H98.94l-2-2V54.94l2.07-2Zm-4.44,6.27V56.27h-1.48v2.91Z" transform="translate(-9.24 -7.73)"/><path class="cls-1" d="M109.27,52.79v-3h4.88v3Zm0,10.37v-9.6h4.88v9.6Z" transform="translate(-9.24 -7.73)"/><path class="cls-1" d="M120.91,63.12h-4.72V49.8h4.72Z" transform="translate(-9.24 -7.73)"/><path class="cls-1" d="M127.45,59.09v.74h5.71v3.33H124.6l-1.75-1.81V55l2.06-2.1h6.56l1.75,1.81v4.37Zm-.27-2.93v.91H129v-.91Z" transform="translate(-9.24 -7.73)"/><path class="cls-1" d="M145.22,49.8V63.16h-8.08l-2-2V54.94l2-2h3.51V49.8Zm-4.37,9.86V56.55h-1.41v3.11Z" transform="translate(-9.24 -7.73)"/><path class="cls-1" d="M158.88,57v2.13h2v4h-4.85l-2-2V57H153V53.07H154v-2.3h4.86v2.3h2V57Z" transform="translate(-9.24 -7.73)"/><path class="cls-1" d="M162.75,61.21v-6.3l2-2H171l2,2v6.3l-2,2h-6.26Zm6-1.66v-3h-1.67v3Z" transform="translate(-9.24 -7.73)"/><path class="cls-1" d="M185.77,63.12H181V49.8h4.73Z" transform="translate(-9.24 -7.73)"/><path class="cls-1" d="M187.71,61.21v-6.3l2-2H196l2,2v6.3l-2,2h-6.26Zm6-1.66v-3H192v3Z" transform="translate(-9.24 -7.73)"/><path class="cls-1" d="M199.87,63.16V60.37h4.37v-.8h-3.35l-1.1-1.06v-4l1.43-1.58h7.65v2.46h-4.39v.79H208l1.1,1.06v4.36l-1.42,1.58Z" transform="translate(-9.24 -7.73)"/><path class="cls-1" d="M215.61,59.09v.74h5.71v3.33h-8.56L211,61.35V55l2.06-2.1h6.56l1.75,1.81v4.37Zm-.28-2.93v.91h1.86v-.91Z" transform="translate(-9.24 -7.73)"/><path class="cls-1" d="M227.37,59h.83V52.91H232V59h.82V52.91H237v7.15L235,63.16h-3.88l-1-1.81h-.22l-1,1.81h-3.71l-1.93-3.1V52.91h4.11Z" transform="translate(-9.24 -7.73)"/><path class="cls-1" d="M243.43,59.09v.74h5.71v3.33h-8.56l-1.75-1.81V55l2.06-2.1h6.56l1.75,1.81v4.37Zm-.27-2.93v.91H245v-.91Z" transform="translate(-9.24 -7.73)"/><path class="cls-1" d="M251.11,52.79v-3H256v3Zm0,10.37v-9.6H256v9.6Z" transform="translate(-9.24 -7.73)"/><path class="cls-1" d="M267.92,52.91v11.4l-2,2h-7.53V62.91h5v-.83h-4l-1.48-1.56V54.94l2.06-2Zm-5.75,5.74h1.56V56.42h-1.56Z" transform="translate(-9.24 -7.73)"/><path class="cls-1" d="M279.66,54.94v8.22h-4.43V57.08h-.94v6.08h-4.38V49.8h4.57v3.11h3.12Z" transform="translate(-9.24 -7.73)"/><path class="cls-1" d="M287.14,57v2.13h2v4h-4.85l-2.05-2V57h-1.06V53.07h1.06v-2.3h4.86v2.3h2V57Z" transform="translate(-9.24 -7.73)"/><path class="cls-1" d="M67.07,35.41H15.22a6,6,0,0,0,0,12H67.07a6,6,0,1,0,0-12Z" transform="translate(-9.24 -7.73)"/><path class="cls-1" d="M69.06,51.36H13.22a2,2,0,0,0-2,2v2a8,8,0,0,0,8,8H63.08a8,8,0,0,0,8-8v-2A2,2,0,0,0,69.06,51.36Z" transform="translate(-9.24 -7.73)"/><path class="cls-1" d="M16.54,32.19h49.2c4.31,0,6.81-5.47,4.34-9.46-5-8.09-16-14.46-28.94-14.47S17.21,14.64,12.2,22.73C9.73,26.72,12.24,32.19,16.54,32.19Z" transform="translate(-9.24 -7.73)"/><circle class="cls-2" cx="28.04" cy="8.64" r="1.55"/><circle class="cls-2" cx="35.77" cy="8.64" r="1.55"/><path class="cls-2" d="M45.2,21.42a5.29,5.29,0,0,1-4.06,1.9,5.24,5.24,0,0,1-4-1.9A1.16,1.16,0,0,0,35.3,22.9,7.61,7.61,0,0,0,47,22.9a1.16,1.16,0,0,0-1.78-1.48Z" transform="translate(-9.24 -7.73)"/></svg>