<svg id="圖層_1" data-name="圖層 1" xmlns="http://www.w3.org/2000/svg" viewBox="0 0 850.39 850.39"><defs><style>.cls-1{fill:#fff;}.cls-2{fill:#eba63a;}</style></defs><path class="cls-1" d="M700.79,421.08H149.6a63.6,63.6,0,0,0,0,127.2H700.79a63.6,63.6,0,1,0,0-127.2Z"/><path class="cls-1" d="M722,590.68H128.4a21.2,21.2,0,0,0-21.2,21.2v21.2a84.8,84.8,0,0,0,84.8,84.8H658.39a84.8,84.8,0,0,0,84.8-84.8v-21.2A21.2,21.2,0,0,0,722,590.68Z"/><path class="cls-1" d="M163.7,386.91h523c45.81,0,72.37-58.17,46.14-100.54-53.24-86-170.43-153.72-307.64-153.86-137.19.14-254.4,67.84-307.63,153.85C91.31,328.73,117.9,386.91,163.7,386.91Z"/><circle class="cls-2" cx="384.11" cy="218.67" r="16.43"/><circle class="cls-2" cx="466.26" cy="218.67" r="16.43"/><path class="cls-2" d="M468.31,272.37a56.08,56.08,0,0,1-86.25,0,12.32,12.32,0,1,0-18.94,15.76,80.82,80.82,0,0,0,124.14,0,12.32,12.32,0,0,0-18.95-15.76Z"/></svg>